<svg width="24" height="24" viewBox="0 0 24 24" fill="none" xmlns="http://www.w3.org/2000/svg">
<path d="M17.607 10.4948L12.6353 2.57775C12.5631 2.47651 12.4678 2.39398 12.3573 2.33703C12.2468 2.28008 12.1243 2.25037 12 2.25037C11.8757 2.25037 11.7532 2.28008 11.6427 2.33703C11.5322 2.39398 11.4369 2.47651 11.3647 2.57775L6.3705 10.533C5.67724 11.6522 5.2908 12.9341 5.25 14.25C5.25 16.0402 5.96116 17.7571 7.22703 19.023C8.4929 20.2888 10.2098 21 12 21C13.7902 21 15.5071 20.2888 16.773 19.023C18.0388 17.7571 18.75 16.0402 18.75 14.25C18.707 12.9193 18.3126 11.6237 17.607 10.4948ZM12 19.5C10.6082 19.498 9.27402 18.9443 8.28988 17.9601C7.30574 16.976 6.75198 15.6418 6.75 14.25C6.79063 13.2013 7.10561 12.1817 7.6635 11.2928L8.36475 10.1753L15.9202 17.7308C15.4294 18.2866 14.8261 18.7318 14.1503 19.037C13.4745 19.3421 12.7415 19.4995 12 19.5Z" fill="black"/>
</svg>
